<?xml version="1.0" encoding="utf-8"?>
<!-- Generator: Adobe Illustrator 28.0.0, SVG Export Plug-In . SVG Version: 6.00 Build 0)  -->
<svg version="1.1" xmlns="http://www.w3.org/2000/svg" xmlns:xlink="http://www.w3.org/1999/xlink" x="0px" y="0px"
	 viewBox="0 0 512 512" style="enable-background:new 0 0 512 512;" xml:space="preserve">
<style type="text/css">
	.st0{display:none;}
	.st1{stroke:#000000;stroke-width:2.1895;stroke-miterlimit:10;}
	.st2{stroke:#000000;stroke-width:2.4293;stroke-miterlimit:10;}
</style>
<g id="Layer_1" class="st0">
</g>
<g id="Layer_3" class="st0">
</g>
<g id="Layer_2">
	<g>
		<path d="M331.2,86.28c-71.4-30.54-152.66-10.01-205.95,44.83c-16.53,16.48-30.75,35.85-40.56,56.89
			c-47.26,96.78,25.46,204.12,124.48,224.66c35.63,7.21,72.57,0.64,105.74-13.38c30.25-12.71,59.24-30.4,81.32-55.09
			c44.24-47.65,56.57-112.98,26.8-172.26C404.2,133.16,370.9,102.81,331.2,86.28L331.2,86.28z M344.44,53.61
			c33.96,13.43,64.3,34.93,89.74,61.01c14.24,14.55,26.69,31.13,36.73,48.87c41.63,72.98,34.05,159.66-13.45,228.01
			c-44.98,65.58-116.9,107.81-197.37,106.96c-3.54-0.07-8.72-0.13-12.2-0.42c-3.53-0.28-8.7-0.65-12.17-1.1c0,0-6.06-0.86-6.06-0.86
			c-13.88-1.96-27.93-5.38-41.19-9.88C106.41,458.6,38.52,385.52,21.2,300.49C5.51,223.78,38.78,150.15,96.56,100.1
			c22.76-19.72,49.55-34.26,77.62-44.85C228.15,34.37,290.21,32.12,344.44,53.61L344.44,53.61z"/>
	</g>
	<path class="st1" d="M105.65,110.64c0,0,12.33,118.06,28.77,122.35c16.44,4.29,75.36,3.22,90.43-4.29c15.07-7.51,0-156.69,0-156.69
		L105.65,110.64z"/>
	<path class="st2" d="M274.35,66.2c0,0-6.16,109.91-4.11,130.51c2.05,20.61-4.01,19.46,8.26,25.19
		c12.27,5.72,85.14,24.04,92.32,16.03c7.18-8.01,12.32-11.45,14.37-21.75c2.05-10.3,12.36-95.16,7.18-114.48
		S274.35,66.2,274.35,66.2z"/>
	<g>
		<g>
			<path d="M166.3,93.31c7.99-2.49,15.9-5.22,23.72-8.2c1.16-0.44,1.99-1.44,1.79-2.74c-0.18-1.22-1.19-2.16-2.46-2.17
				c-9.82-0.05-19.25,2.89-28.5,5.87c0.64,1.52,1.28,3.05,1.93,4.57c14.79-6.78,30.18-12.19,45.94-16.23
				c-0.64-1.52-1.28-3.05-1.93-4.57c-6.57,3.78-13.35,7.17-20.32,10.15c-1.13,0.48-1.47,2.11-1.02,3.12
				c0.5,1.13,1.72,1.78,2.95,1.45c6.2-1.71,12.38-3.46,18.3-5.99c2.81-1.21,5.45-2.69,8.14-4.14c2.46-1.33,4.95-2.44,7.8-2.09
				c-0.42-1.55-0.84-3.11-1.26-4.66c-3.8,2.32-8.08,3.29-12.51,2.92c0,1.67,0,3.33,0,5c2.42-0.14,4.82-0.57,7.09-1.44
				c1.16-0.44,2.26-0.97,3.35-1.55c0.19-0.1,1.17-0.41,1.29-0.56c-0.01,0.01-0.36-0.13-0.45-0.42c0.38-0.94,0.77-1.88,1.15-2.82
				c-0.39,0.22-0.56,0.23-0.98,0.12c-3.12-0.8-4.45,4.02-1.33,4.82c1.69,0.43,3.31,0.22,4.83-0.62c0.95-0.53,1.45-1.78,1.15-2.82
				c-0.45-1.53-1.61-2.65-3.16-3.07c-1.64-0.44-3.21,0.11-4.66,0.86c-2.65,1.37-5.28,2.33-8.29,2.51c-3.24,0.19-3.19,4.74,0,5
				c5.24,0.43,10.55-0.87,15.03-3.61c2.29-1.4,1.08-4.37-1.26-4.66c-6.29-0.77-11.79,3.91-17.2,6.36
				c-5.88,2.66-12.17,4.34-18.37,6.04c0.64,1.52,1.28,3.05,1.93,4.57c6.97-2.98,13.75-6.37,20.32-10.15
				c2.47-1.42,0.81-5.27-1.93-4.57c-16.18,4.15-31.95,9.77-47.13,16.73c-2.57,1.18-0.75,5.43,1.93,4.57
				c8.82-2.84,17.8-5.73,27.17-5.69c-0.22-1.64-0.44-3.27-0.66-4.91c-7.82,2.98-15.73,5.71-23.72,8.2
				C161.91,89.44,163.21,94.27,166.3,93.31L166.3,93.31z"/>
		</g>
	</g>
	<g>
		<g>
			<path d="M221.18,66.2c0,2.11,0,4.23,0,6.34c0,1.31,1.15,2.56,2.5,2.5c1.35-0.06,2.5-1.1,2.5-2.5c0-2.11,0-4.23,0-6.34
				c0-1.31-1.15-2.56-2.5-2.5C222.33,63.76,221.18,64.8,221.18,66.2L221.18,66.2z"/>
		</g>
	</g>
</g>
</svg>
